<svg xmlns="http://www.w3.org/2000/svg" xmlns:xlink="http://www.w3.org/1999/xlink" width="123" height="150" viewBox="0 0 123 150">
    <defs>
        <path id="a" d="M.088.26h82.874v47.583H.088z"/>
    </defs>
    <g fill="none" fill-rule="evenodd">
        <path fill="#FEFEFE" d="M19.169 50s-12.56-10.07 1.856-15.106C35.44 29.86 67 41.43 67 41.43S47.78 29.534 31.29 28.573a43.787 43.787 0 0 0-14.124 0A18.083 18.083 0 0 0 7.12 35.36S.567 44.213 19.17 50M100.788 26.015s14.99 5.764 3.195 15.52C92.19 51.29 59 50.36 59 50.36s21.792 5.348 37.476.82a41.295 41.295 0 0 0 13.17-4.69c3.432-2.383 5.96-5.93 7.152-10.033 0 0 3.214-10.913-16.01-10.442"/>
        <g transform="translate(20)">
            <mask id="b" fill="#fff">
                <use xlink:href="#a"/>
            </mask>
            <path fill="#FEFEFE" d="M40.88.26C21.628.263 4.83 13.466.089 32.324h4.95c5.785-13.947 19.29-23.021 34.255-23.018 20.51 0 37.136 16.8 37.136 37.526 0 .34-.005.676-.014 1.012h6.248c.198-1.678.298-3.366.299-5.056C82.965 19.305 64.13.265 40.892.261h-.011z" mask="url(#b)"/>
        </g>
        <path fill="#FEFEFE" d="M97.749 32a36.428 36.428 0 0 1-1.123 22.242C89.512 73.165 68.402 82.74 49.473 75.631 31.878 69.02 22.148 50.166 26.955 32h-7.014c-6.652 21.026 4.315 43.58 24.963 51.338 21.45 8.058 45.372-2.793 53.433-24.237A41.29 41.29 0 0 0 99.058 32H97.75zM61.684 111.502v4.566c0 .38-.059.785.541.783a14.121 14.121 0 0 0 5.14-.65 4.52 4.52 0 0 0 2.907-4.488 4.627 4.627 0 0 0-2.562-4.81 11.189 11.189 0 0 0-5.518-.787c-.58.013-.51.442-.51.818.001 1.52.003 3.041.003 4.563v.005zm0 21.675c0 1.772.01 3.537 0 5.304 0 .505.05.86.693.898 2.262.26 4.554.044 6.726-.637a5.387 5.387 0 0 0 3.764-5.619c.192-2.5-1.484-4.765-3.944-5.327a21.685 21.685 0 0 0-6.649-.647c-.566 0-.597.303-.594.73.011 1.762.005 3.53.003 5.298h.001zM77.46 120.75a16.921 16.921 0 0 1 4.232 2.58 12.205 12.205 0 0 1 3.995 7.34c.572 3.043.36 6.18-.614 9.119-1.624 4.648-5.153 7.277-9.728 8.662a47.05 47.05 0 0 1-14.3 1.491c-3.738-.04-7.439-.507-11.152-.87-.728-.072-.893-.329-.892-1.02.02-16.702.02-33.405 0-50.109 0-.725.157-.954.943-1.079a80.18 80.18 0 0 1 16.161-.742c3.282.09 6.512.844 9.49 2.216 5.49 2.674 7.55 7.634 7.023 13.31-.319 3.63-2.2 6.947-5.158 9.102zM22.823 110.466c-.107.254-.159.346-.185.444-1.513 5.738-3.027 11.48-4.566 17.212-.162.607.122.693.57.826a15.33 15.33 0 0 0 8.074.066c.722-.17.62-.523.485-1.058-1.465-5.787-2.904-11.58-4.378-17.49m16.052 38.528a32.022 32.022 0 0 1-5.327-.381 1.133 1.133 0 0 1-1.101-.994c-.746-2.805-1.555-5.596-2.28-8.407-.176-.682-.42-.79-1.074-.606a24.473 24.473 0 0 1-13.052.11c-.645-.17-.826-.008-.983.598-.717 2.777-1.506 5.535-2.236 8.312-.08.549-.542.963-1.1.99-3.636.554-7.339.509-10.958-.137-.87-.136-.86-.409-.636-1.114 3.722-11.692 7.43-23.388 11.121-35.087 1.565-4.942 3.15-9.88 4.687-14.83a1.262 1.262 0 0 1 1.228-1.083 47.956 47.956 0 0 1 11.81 0 1.327 1.327 0 0 1 1.334 1.1c1.961 6.41 3.976 12.809 5.974 19.213l9.457 30.282c.453 1.448.45 1.426-1.11 1.635a32.842 32.842 0 0 1-5.754.4M91.024 122.203c0-8.346.015-16.692-.022-25.038 0-.903.195-1.169 1.158-1.165 9.734.04 19.469.04 29.202 0 .959 0 1.154.348 1.289 1.168a30.034 30.034 0 0 1-.023 9.276c-.124.848-.447 1.058-1.283 1.052-5.364-.037-10.728 0-16.093-.037-.786 0-1.032.183-1.013.98.056 2.335.047 4.68 0 7.019-.012.704.222.88.907.875 4.156-.026 8.314.012 12.469-.036.795-.01 1.026.286 1.153.962a26.64 26.64 0 0 1-.007 9.682c-.123.688-.374.962-1.16.955-4.12-.048-8.246 0-12.362-.041-.808-.008-1.007.217-1.003.996.033 6.147-.008 12.292.046 18.437.009.933-.323 1.163-1.163 1.293-3.655.559-7.377.559-11.033 0-.851-.127-1.09-.412-1.086-1.245.037-8.372.024-16.753.024-25.133"/>
    </g>
</svg>
