<svg xmlns="http://www.w3.org/2000/svg" xmlns:xlink="http://www.w3.org/1999/xlink" width="30" height="30" viewBox="0 0 30 30">
    <defs>
        <path id="a" d="M11 5c0-1.605 1.047-3 2.5-3h3C17.953 2 19 3.395 19 5h3a2 2 0 0 1 2 2v1h1a1 1 0 0 1 0 2h-1v16a2 2 0 0 1-2 2H8a2 2 0 0 1-2-2V10H5a1 1 0 1 1 0-2h1V7a2 2 0 0 1 2-2h3zm2 0h4c0-.605-.297-1-.5-1h-3c-.203 0-.5.395-.5 1zM8 8h14V7H8v1zm14 2H8v16h14V10zm-12 2a1 1 0 0 1 2 0v12a1 1 0 0 1-2 0V12zm8 0a1 1 0 0 1 2 0v12a1 1 0 0 1-2 0V12zm-4 0a1 1 0 0 1 2 0v12a1 1 0 0 1-2 0V12z"/>
    </defs>
    <g fill="none" fill-rule="evenodd">
        <mask id="b" fill="#fff">
            <use xlink:href="#a"/>
        </mask>
        <use fill="#979797" fill-rule="nonzero" xlink:href="#a"/>
        <g fill="#979797" mask="url(#b)">
            <path d="M0 0h30v30H0z"/>
        </g>
    </g>
</svg>
