<svg xmlns="http://www.w3.org/2000/svg" xmlns:xlink="http://www.w3.org/1999/xlink" width="121" height="39" viewBox="0 0 121 39">
    <defs>
        <path id="a" d="M.04.12h37.943v21.808H.04z"/>
    </defs>
    <g fill="none" fill-rule="evenodd">
        <path fill="#FEFEFE" d="M6.545 22s-5.765-4.578.852-6.866c6.616-2.29 21.103 2.97 21.103 2.97s-8.822-5.407-16.392-5.843a20.294 20.294 0 0 0-6.482 0 8.304 8.304 0 0 0-4.612 3.084S-1.994 19.37 6.544 22M44.953 11.007s6.978 2.775 1.488 7.473C40.95 23.177 25.5 22.729 25.5 22.729s10.144 2.575 17.446.395a18.812 18.812 0 0 0 6.13-2.259c1.598-1.147 2.775-2.854 3.33-4.83 0 0 1.496-5.255-7.453-5.028"/>
        <g transform="translate(7.5)">
            <mask id="b" fill="#fff">
                <use xlink:href="#a"/>
            </mask>
            <path fill="#FEFEFE" d="M18.717.12C9.9.12 2.21 6.171.04 14.814h2.266C4.955 8.423 11.138 4.263 17.99 4.265c9.39 0 17.002 7.7 17.002 17.2 0 .155-.003.31-.007.463h2.86c.091-.769.137-1.543.138-2.317C37.984 8.848 29.36.12 18.722.119h-.005z" mask="url(#b)"/>
        </g>
        <path fill="#FEFEFE" d="M43.012 14a17.043 17.043 0 0 1-.515 10.297C39.24 33.057 29.575 37.491 20.91 34.2 12.854 31.14 8.4 22.41 10.6 14H7.39c-3.046 9.734 1.975 20.176 11.429 23.767 9.82 3.731 20.772-1.292 24.463-11.22A19.318 19.318 0 0 0 43.61 14h-.6z"/>
        <g fill="#FEFEFE">
            <path d="M91.328 14.177v2.114c0 .176-.027.363.248.362.8.048 1.6-.055 2.362-.3a2.094 2.094 0 0 0 1.336-2.078 2.146 2.146 0 0 0-1.178-2.227 5.105 5.105 0 0 0-2.535-.365c-.266.007-.234.205-.234.379l.001 2.112v.003zm0 10.035c0 .82.004 1.637 0 2.455 0 .234.023.398.318.416a7.42 7.42 0 0 0 3.09-.295 2.494 2.494 0 0 0 1.73-2.601 2.347 2.347 0 0 0-1.812-2.467 9.891 9.891 0 0 0-3.055-.3c-.26 0-.274.141-.273.339.005.816.002 1.634.001 2.453zm7.248-5.754c.703.3 1.358.703 1.944 1.195a5.663 5.663 0 0 1 1.836 3.398 8.517 8.517 0 0 1-.283 4.222c-.746 2.151-2.367 3.369-4.469 4.01-2.141.568-4.357.8-6.57.69-1.718-.019-3.418-.234-5.124-.403-.335-.033-.41-.152-.41-.471.009-7.733.009-15.466 0-23.2 0-.335.072-.441.433-.499a36.564 36.564 0 0 1 7.426-.344c1.508.042 2.991.391 4.36 1.027 2.522 1.237 3.468 3.534 3.227 6.161a5.858 5.858 0 0 1-2.37 4.214z"/>
            <path d="M73.911 13.55c-.053.116-.079.157-.092.202-.757 2.598-1.514 5.198-2.283 7.794-.081.275.061.314.285.374a8.436 8.436 0 0 0 4.037.03c.361-.077.31-.237.242-.48-.732-2.62-1.452-5.243-2.189-7.92m8.026 17.447c-.892.01-1.782-.048-2.663-.172-.283-.007-.518-.198-.55-.45-.374-1.27-.778-2.534-1.14-3.807-.088-.309-.21-.358-.538-.275-2.129.551-4.386.569-6.525.05-.323-.077-.413-.004-.492.271-.358 1.258-.753 2.506-1.118 3.764-.04.248-.271.436-.55.448-1.818.251-3.67.23-5.479-.062-.435-.062-.43-.185-.318-.505 1.861-5.294 3.715-10.59 5.56-15.888.783-2.238 1.576-4.473 2.344-6.715.043-.277.303-.485.614-.49 1.96-.221 3.944-.221 5.905 0 .33-.005.613.206.667.497.98 2.903 1.988 5.8 2.987 8.7l4.729 13.713c.226.656.225.646-.555.74-.951.137-1.914.198-2.878.181M105.511 18.865c0-3.779.007-7.558-.01-11.337 0-.41.091-.53.543-.528 4.563.018 9.126.018 13.688 0 .45 0 .541.158.604.529a13.144 13.144 0 0 1-.01 4.2c-.058.384-.21.48-.602.477-2.514-.017-5.029 0-7.543-.017-.369 0-.484.083-.475.444a69.24 69.24 0 0 1 0 3.178c-.006.32.104.399.425.396 1.948-.012 3.897.006 5.845-.016.373-.004.48.13.54.436a11.66 11.66 0 0 1-.003 4.384c-.058.311-.176.436-.544.433-1.931-.022-3.865 0-5.795-.02-.378-.003-.471.1-.47.452.016 2.783-.004 5.566.022 8.349.004.422-.151.526-.545.585a17.699 17.699 0 0 1-5.172 0c-.399-.057-.511-.187-.509-.563.017-3.792.011-7.587.011-11.382"/>
        </g>
    </g>
</svg>
